<?xml version="1.0" standalone="no"?>
<!DOCTYPE svg PUBLIC "-//W3C//DTD SVG 20010904//EN"
 "http://www.w3.org/TR/2001/REC-SVG-20010904/DTD/svg10.dtd">
<svg version="1.0" xmlns="http://www.w3.org/2000/svg"
 width="500.000000pt" height="500.000000pt" viewBox="0 0 500.000000 500.000000"
 preserveAspectRatio="xMidYMid meet">
<metadata>
Created by potrace 1.14, written by Peter Selinger 2001-2017
</metadata>
<g transform="translate(0.000000,500.000000) scale(0.100000,-0.100000)"
fill="#000000" stroke="none">
<path d="M0 2500 l0 -2500 2500 0 2500 0 0 2500 0 2500 -2500 0 -2500 0 0
-2500z m3456 1573 c20 -20 97 -129 171 -242 74 -113 206 -312 292 -441 87
-129 170 -257 184 -285 29 -53 34 -102 16 -138 -16 -32 -104 -112 -172 -157
-64 -43 -99 -49 -135 -24 -21 14 -151 207 -504 744 -63 96 -137 207 -165 246
-77 107 -74 138 14 205 32 24 60 47 63 50 3 4 30 23 60 43 76 50 125 50 176
-1z m-609 -31 c29 -25 159 -216 701 -1037 102 -154 211 -319 243 -367 133
-200 134 -227 13 -336 -158 -140 -231 -169 -295 -115 -36 30 -976 1439 -1028
1540 -35 69 -29 106 27 161 57 58 163 140 211 164 50 25 90 22 128 -10z m1132
-223 c28 -34 67 -95 87 -135 39 -82 38 -91 -19 -151 -24 -25 -39 -33 -67 -33
-20 0 -43 6 -51 13 -9 6 -46 58 -82 113 -72 109 -82 149 -49 191 16 21 94 62
118 63 6 0 34 -28 63 -61z m-1169 -819 c28 -15 141 -189 147 -227 10 -58 -5
-73 -327 -321 -19 -15 -125 -96 -235 -181 -110 -85 -219 -170 -243 -188 -49
-38 -98 -43 -130 -15 -32 27 -132 181 -139 213 -11 55 13 83 171 205 231 180
481 373 585 452 96 74 128 85 171 62z m-1429 -191 c37 -40 74 -95 493 -729
119 -179 220 -332 226 -340 104 -149 302 -460 311 -489 6 -22 9 -52 5 -68 -15
-60 -234 -237 -308 -249 -33 -6 -41 -2 -82 37 -25 24 -97 123 -160 219 -64 96
-121 182 -126 190 -6 8 -116 175 -246 370 -517 782 -496 748 -508 807 -12 56
26 105 159 203 141 104 178 112 236 49z m-343 -572 c32 -18 81 -86 276 -382
94 -143 235 -356 313 -475 176 -265 176 -262 76 -346 -153 -126 -209 -151
-265 -116 -43 28 -58 47 -233 312 -81 124 -213 322 -291 441 -207 311 -215
336 -143 414 41 45 170 147 199 158 24 9 43 7 68 -6z m-105 -768 c20 -9 121
-149 157 -218 15 -29 6 -83 -18 -103 -20 -18 -77 -48 -91 -48 -36 0 -191 217
-191 268 0 18 61 93 83 102 29 12 32 12 60 -1z"/>
</g>
</svg>
